<svg width="142" height="129" viewBox="0 0 142 129" fill="none" xmlns="http://www.w3.org/2000/svg">
<path d="M1.35832 17.0331H12.5521V47.7847H7.64698V21.6238H1.35832V17.0331Z" fill="#E7EDF8"/>
<path d="M78 128.785C113.346 128.785 142 124.755 142 119.785C142 114.814 113.346 110.785 78 110.785C42.6538 110.785 14 114.814 14 119.785C14 124.755 42.6538 128.785 78 128.785Z" fill="url(#paint0_linear_2043:23671)"/>
<circle cx="75.8562" cy="64.7847" r="63.2"/>
<circle cx="75.8562" cy="64.7847" r="63.2" fill="url(#paint1_linear_2043:23671)" fill-opacity="0.2"/>
<circle cx="75.8562" cy="64.7847" r="63.2" stroke="url(#paint2_linear_2043:23671)" stroke-width="1.6"/>
<path d="M75.8562 128.785C111.202 128.785 139.856 100.131 139.856 64.7847C139.856 29.4384 111.202 0.784668 75.8562 0.784668C40.51 0.784668 11.8562 29.4384 11.8562 64.7847C11.8562 100.131 40.51 128.785 75.8562 128.785Z" fill="url(#paint3_radial_2043:23671)" fill-opacity="0.5"/>
<g filter="url(#filter0_b_2043:23671)">
<path d="M75.8562 128.785C67.2162 128.785 58.8405 127.087 50.9379 123.748C43.3136 120.52 36.4684 115.915 30.5971 110.03C24.7258 104.159 20.1066 97.3134 16.8788 89.689C13.5536 81.8003 11.8562 73.4247 11.8562 64.7847C11.8562 56.1447 13.5536 47.769 16.8927 39.8664C20.1205 32.2421 24.7258 25.3968 30.611 19.5255C36.4962 13.6542 43.3275 9.0351 50.9519 5.80728C58.8405 2.48206 67.2162 0.784668 75.8562 0.784668C77.3866 0.784668 78.6388 2.03684 78.6388 3.56728C78.6388 5.09771 77.3866 6.34988 75.8562 6.34988C67.9675 6.34988 60.3153 7.89423 53.1084 10.9412C46.1519 13.8908 39.9049 18.0925 34.5345 23.4629C29.164 28.8334 24.9484 35.0803 22.0127 42.0368C18.9658 49.2438 17.4214 56.896 17.4214 64.7847C17.4214 72.6734 18.9658 80.3255 22.0127 87.5325C24.9623 94.489 29.164 100.736 34.5345 106.106C39.9049 111.477 46.1519 115.692 53.1084 118.628C60.3153 121.675 67.9675 123.219 75.8562 123.219C83.7449 123.219 91.3971 121.675 98.604 118.628C105.561 115.679 111.808 111.477 117.178 106.106C122.548 100.736 126.764 94.489 129.7 87.5325C132.747 80.3255 134.291 72.6734 134.291 64.7847C134.291 63.2542 135.543 62.0021 137.074 62.0021C138.604 62.0021 139.856 63.2542 139.856 64.7847C139.856 73.4247 138.159 81.8003 134.82 89.7029C131.592 97.3273 126.987 104.172 121.101 110.044C115.23 115.915 108.385 120.534 100.761 123.762C92.8718 127.087 84.4962 128.785 75.8562 128.785Z"/>
<path d="M75.8562 128.785C67.2162 128.785 58.8405 127.087 50.9379 123.748C43.3136 120.52 36.4684 115.915 30.5971 110.03C24.7258 104.159 20.1066 97.3134 16.8788 89.689C13.5536 81.8003 11.8562 73.4247 11.8562 64.7847C11.8562 56.1447 13.5536 47.769 16.8927 39.8664C20.1205 32.2421 24.7258 25.3968 30.611 19.5255C36.4962 13.6542 43.3275 9.0351 50.9519 5.80728C58.8405 2.48206 67.2162 0.784668 75.8562 0.784668C77.3866 0.784668 78.6388 2.03684 78.6388 3.56728C78.6388 5.09771 77.3866 6.34988 75.8562 6.34988C67.9675 6.34988 60.3153 7.89423 53.1084 10.9412C46.1519 13.8908 39.9049 18.0925 34.5345 23.4629C29.164 28.8334 24.9484 35.0803 22.0127 42.0368C18.9658 49.2438 17.4214 56.896 17.4214 64.7847C17.4214 72.6734 18.9658 80.3255 22.0127 87.5325C24.9623 94.489 29.164 100.736 34.5345 106.106C39.9049 111.477 46.1519 115.692 53.1084 118.628C60.3153 121.675 67.9675 123.219 75.8562 123.219C83.7449 123.219 91.3971 121.675 98.604 118.628C105.561 115.679 111.808 111.477 117.178 106.106C122.548 100.736 126.764 94.489 129.7 87.5325C132.747 80.3255 134.291 72.6734 134.291 64.7847C134.291 63.2542 135.543 62.0021 137.074 62.0021C138.604 62.0021 139.856 63.2542 139.856 64.7847C139.856 73.4247 138.159 81.8003 134.82 89.7029C131.592 97.3273 126.987 104.172 121.101 110.044C115.23 115.915 108.385 120.534 100.761 123.762C92.8718 127.087 84.4962 128.785 75.8562 128.785Z" fill="url(#paint4_radial_2043:23671)"/>
</g>
<path d="M89.8503 55.555H83.9408C82.7806 55.555 81.8433 54.6177 81.8433 53.4575V36.2432C81.8433 34.5863 80.5002 33.2432 78.8433 33.2432H76.6578C75.0009 33.2432 73.6578 34.5863 73.6578 36.2432V53.4575C73.6578 54.6177 72.7205 55.555 71.5603 55.555H65.6508C65.4476 55.555 65.323 55.7713 65.4214 55.9483L77.5211 76.8967C77.6194 77.0737 77.8751 77.0737 77.9734 76.8967L90.0732 55.9483C90.178 55.7713 90.0469 55.555 89.8503 55.555Z" fill="url(#paint5_linear_2043:23671)"/>
<path d="M106.27 81.2227H45.443C43.706 81.2227 42.2968 82.6319 42.2968 84.3689V96.9537C42.2968 98.6906 43.706 100.1 45.443 100.1H106.27C108.007 100.1 109.416 98.6906 109.416 96.9537V84.3689C109.416 82.6319 108.007 81.2227 106.27 81.2227ZM90.5385 91.71C90.5385 90.5498 91.4758 89.6125 92.636 89.6125C93.7962 89.6125 94.7335 90.5498 94.7335 91.71C94.7335 92.8702 93.7962 93.8075 92.636 93.8075C91.4758 93.8075 90.5385 92.8702 90.5385 91.71ZM98.9284 93.8075C97.7682 93.8075 96.8309 92.8702 96.8309 91.71C96.8309 90.5498 97.7682 89.6125 98.9284 89.6125C100.089 89.6125 101.026 90.5498 101.026 91.71C101.026 92.8702 100.089 93.8075 98.9284 93.8075Z" fill="url(#paint6_linear_2043:23671)"/>
<defs>
<filter id="filter0_b_2043:23671" x="-4.1438" y="-15.2153" width="160" height="160" filterUnits="userSpaceOnUse" color-interpolation-filters="sRGB">
<feFlood flood-opacity="0" result="BackgroundImageFix"/>
<feGaussianBlur in="BackgroundImage" stdDeviation="8"/>
<feComposite in2="SourceAlpha" operator="in" result="effect1_backgroundBlur_2043:23671"/>
<feBlend mode="normal" in="SourceGraphic" in2="effect1_backgroundBlur_2043:23671" result="shape"/>
</filter>
<linearGradient id="paint0_linear_2043:23671" x1="75.3913" y1="130.923" x2="75.3913" y2="119.785" gradientUnits="userSpaceOnUse">
<stop stop-color="#FFA638" stop-opacity="0.3"/>
<stop offset="1" stop-color="white" stop-opacity="0"/>
</linearGradient>
<linearGradient id="paint1_linear_2043:23671" x1="141.424" y1="0.78467" x2="-13.8874" y2="54.8988" gradientUnits="userSpaceOnUse">
<stop stop-color="white"/>
<stop offset="1" stop-color="white" stop-opacity="0"/>
</linearGradient>
<linearGradient id="paint2_linear_2043:23671" x1="134.24" y1="8.26233" x2="-2.15562" y2="51.9418" gradientUnits="userSpaceOnUse">
<stop stop-color="white"/>
<stop offset="1" stop-color="white" stop-opacity="0"/>
</linearGradient>
<radialGradient id="paint3_radial_2043:23671" cx="0" cy="0" r="1" gradientUnits="userSpaceOnUse" gradientTransform="translate(75.853 64.7819) scale(64.0024)">
<stop stop-color="#FFC989"/>
<stop offset="1" stop-color="white" stop-opacity="0"/>
</radialGradient>
<radialGradient id="paint4_radial_2043:23671" cx="0" cy="0" r="1" gradientUnits="userSpaceOnUse" gradientTransform="translate(15.6771 8.16928) rotate(43.2365) scale(164.644 312.253)">
<stop stop-color="white"/>
<stop offset="1" stop-color="white" stop-opacity="0.59"/>
</radialGradient>
<linearGradient id="paint5_linear_2043:23671" x1="77.7487" y1="33.2432" x2="77.7487" y2="77.0295" gradientUnits="userSpaceOnUse">
<stop stop-color="#FFA235"/>
<stop offset="1" stop-color="#FFD493"/>
</linearGradient>
<linearGradient id="paint6_linear_2043:23671" x1="75.8562" y1="81.2227" x2="75.8562" y2="100.1" gradientUnits="userSpaceOnUse">
<stop stop-color="#FD8B04"/>
<stop offset="1" stop-color="#FFB656"/>
</linearGradient>
</defs>
</svg>
