<svg width="443" height="527" viewBox="0 0 443 527" fill="none" xmlns="http://www.w3.org/2000/svg">
    <g opacity="0.9">
        <path d="M74.9427 272.877L103.637 256.311L74.9427 239.745L46.2487 256.311L74.9427 272.877Z" fill="url(#paint0_linear_1844:16983)"/>
        <path d="M74.9421 488.725V272.877L46.248 256.311V488.725H74.9421Z" fill="url(#paint1_linear_1844:16983)"/>
        <path d="M74.9421 488.725V272.877L103.636 256.311V488.725H74.9421Z" fill="url(#paint2_linear_1844:16983)"/>
    </g>
    <g opacity="0.7">
        <path d="M132.33 142.733L161.024 126.167L132.33 109.601L103.636 126.167L132.33 142.733Z" fill="url(#paint3_linear_1844:16983)"/>
        <path d="M132.33 358.594V142.733L103.636 126.167V358.594H132.33Z" fill="url(#paint4_linear_1844:16983)"/>
        <path d="M132.33 358.594V142.733L161.024 126.167V358.594H132.33Z" fill="url(#paint5_linear_1844:16983)"/>
    </g>
    <path d="M348.166 209.373V185.294L384.21 164.479C421.01 143.236 421.01 108.667 384.21 87.4236L255.049 12.8519L275.901 0.812012L405.062 75.3837C453.361 103.271 453.361 148.644 405.062 176.519L348.166 209.373Z" fill="url(#paint6_linear_1844:16983)"/>
    <path d="M267.026 156.462L185.873 109.601L267.026 62.7524L348.166 109.601L267.026 156.462Z" fill="url(#paint7_linear_1844:16983)"/>
    <path d="M267.026 457.194V156.462L348.166 109.601V389.57L267.026 457.194Z" fill="url(#paint8_linear_1844:16983)"/>
    <path d="M267.026 462.413V156.462L185.873 109.601V397.94L267.026 462.413Z" fill="url(#paint9_linear_1844:16983)"/>
    <path d="M347.914 209.45V215.06V407.673L352.2 405.202V223.154C352.2 218.93 355.163 213.787 358.819 211.681C362.475 209.563 365.438 211.278 365.438 215.501V397.55L369.724 395.079V202.465L373.796 200.108V197.322L408.882 177.062V174.238L347.914 209.45Z" fill="url(#paint10_linear_1844:16983)"/>
    <path d="M408.882 174.238V177.062C414.475 173.456 425.721 166.77 433.891 154.734C440.308 145.28 441.933 134.076 442.34 129.256C442.561 126.628 442.582 120.387 439.751 114.676C440.667 117.923 441.124 120.344 441.283 125.315C441.486 131.633 438.803 140.862 436.794 145.07C434.786 149.278 429.625 156.811 425.721 160.75C418.114 168.427 414.063 170.61 408.882 174.238Z" fill="url(#paint11_linear_1844:16983)"/>
    <path d="M232.066 274.477L214.075 264.089V245.178C214.075 239.013 217.82 236.177 222.447 238.849L223.695 239.568C228.322 242.241 232.066 249.402 232.066 255.567V274.477Z" fill="#231EA7"/>
    <path d="M214.075 264.178L0.912476 387.249V390.073L26.7195 375.172V377.958L30.7916 375.6V524.542L35.078 522.071V383.682C35.078 379.458 38.0407 374.314 41.6968 372.209C45.3529 370.091 48.3156 371.806 48.3156 376.029V514.406L52.6021 511.935V363.006L56.6742 360.648V357.862L87.8645 339.859V342.645L91.9366 340.288V498.269L96.2231 495.798V348.369C96.2231 344.145 99.1858 339.002 102.842 336.896C106.498 334.778 109.461 336.493 109.461 340.716V488.145L113.747 485.674V327.706L117.819 325.348V322.562L149.01 304.559V307.345L153.082 304.987V514.192L157.368 511.721V313.069C157.368 308.845 160.331 303.701 163.987 301.596C167.643 299.478 170.606 301.193 170.606 305.416V504.068L174.892 501.597V292.393L178.964 290.035V287.249L214.05 266.989V264.178H214.075Z" fill="url(#paint12_linear_1844:16983)"/>
    <path d="M232.066 274.478L18.9031 397.549V400.373L44.7101 385.472V388.258L48.7822 385.9V526.786L53.0687 524.315V393.981C53.0687 389.758 56.0314 384.614 59.6875 382.509C63.3435 380.391 66.3062 382.105 66.3062 386.329V516.662L70.5927 514.191V373.306L74.6648 370.948V368.162L105.855 350.159V352.945L109.927 350.587V514.179L114.214 511.708V358.681C114.214 354.458 117.176 349.314 120.832 347.209C124.489 345.091 127.451 346.805 127.451 351.029V504.068L131.738 501.597V338.005L135.81 335.648V332.862L167 314.858V317.645L171.072 315.287V507.9L175.359 505.429V323.381C175.359 319.158 178.321 314.014 181.978 311.908C185.634 309.79 188.596 311.505 188.596 315.728V497.777L192.883 495.306V302.693L196.955 300.335V297.549L232.041 277.289V274.478H232.066Z" fill="url(#paint13_linear_1844:16983)"/>
    <path d="M231.965 253.877L214.075 264.089L0.912476 387.249L18.903 397.549L232.066 274.478V255.567C232.066 255.012 232.028 254.445 231.965 253.877Z" fill="url(#paint14_linear_1844:16983)"/>
    <path d="M308.393 114.226C308.407 104.868 293.354 97.2586 274.77 97.2302C256.186 97.2017 241.11 104.765 241.096 114.123C241.081 123.481 256.135 131.09 274.718 131.118C293.302 131.147 308.379 123.584 308.393 114.226Z" fill="url(#paint15_radial_1844:16983)"/>
    <path d="M266.219 115.614C288.848 115.614 307.192 97.2695 307.192 74.6405C307.192 52.0114 288.848 33.667 266.219 33.667C243.59 33.667 225.245 52.0114 225.245 74.6405C225.245 97.2695 243.59 115.614 266.219 115.614Z" fill="url(#paint16_radial_1844:16983)"/>
    <g style="mix-blend-mode:soft-light" clip-path="url(#clip0_1844:16983)">
        <path d="M266.385 115.659C289.026 115.659 307.381 97.3045 307.381 74.663C307.381 52.0215 289.026 33.667 266.385 33.667C243.743 33.667 225.389 52.0215 225.389 74.663C225.389 97.3045 243.743 115.659 266.385 115.659Z" fill="#1C68F3"/>
        <path fill-rule="evenodd" clip-rule="evenodd" d="M285.369 67.3965V77.777H253.729L252.367 77.7771C253.808 84.0755 259.526 88.7802 266.361 88.7802C272.011 88.7802 276.899 85.5646 279.237 80.8913L285.369 80.8912V89.6107C285.369 91.6745 283.669 93.3476 281.572 93.3476H251.197C249.1 93.3476 247.4 91.6745 247.4 89.6107V67.3965H285.369ZM275.595 80.8913C273.582 83.7887 270.197 85.6901 266.361 85.6901C262.525 85.6901 259.14 83.7887 257.127 80.8913H275.595ZM258.264 69.8878C255.288 69.8878 252.827 72.0534 252.417 74.8705L255.654 74.8705C256.01 73.7862 257.044 73.002 258.264 73.002C259.484 73.002 260.518 73.7862 260.874 74.8705L264.11 74.8705C263.701 72.0534 261.239 69.8878 258.264 69.8878ZM274.506 69.8878C271.53 69.8878 269.069 72.0534 268.66 74.8705L271.896 74.8705C272.252 73.7862 273.286 73.002 274.506 73.002C275.726 73.002 276.76 73.7862 277.116 74.8705L280.352 74.8705C279.943 72.0534 277.481 69.8878 274.506 69.8878ZM281.572 55.978C283.669 55.978 285.369 57.6511 285.369 59.715V64.2824H247.4V59.715C247.4 57.6511 249.1 55.978 251.197 55.978H281.572Z" fill="white"/>
    </g>
    <path d="M0.927246 387.253L18.9029 397.499V400.362L0.927246 390.065V387.253Z" fill="#201BA9"/>
    <path d="M323.632 278.953L352.326 262.387L323.632 245.821L294.951 262.387L323.632 278.953Z" fill="url(#paint17_linear_1844:16983)"/>
    <path d="M323.632 494.802V278.954L294.951 262.388V494.802H323.632Z" fill="url(#paint18_linear_1844:16983)"/>
    <path d="M323.632 494.802V278.954L352.326 262.388V494.802H323.632Z" fill="url(#paint19_linear_1844:16983)"/>
    <defs>
        <linearGradient id="paint0_linear_1844:16983" x1="74.9421" y1="272.877" x2="74.9421" y2="239.745" gradientUnits="userSpaceOnUse">
            <stop stop-color="#ACA8FF"/>
            <stop offset="1" stop-color="#8581FC"/>
        </linearGradient>
        <linearGradient id="paint1_linear_1844:16983" x1="60.595" y1="463.612" x2="60.595" y2="256.312" gradientUnits="userSpaceOnUse">
            <stop stop-color="#06018E"/>
            <stop offset="1" stop-color="#7D78EA"/>
        </linearGradient>
        <linearGradient id="paint2_linear_1844:16983" x1="89.2897" y1="482.289" x2="89.2897" y2="273.101" gradientUnits="userSpaceOnUse">
            <stop stop-color="#07028B"/>
            <stop offset="1" stop-color="#433EC5"/>
        </linearGradient>
        <linearGradient id="paint3_linear_1844:16983" x1="132.33" y1="142.733" x2="132.33" y2="109.601" gradientUnits="userSpaceOnUse">
            <stop stop-color="#ACA8FF"/>
            <stop offset="1" stop-color="#8581FC"/>
        </linearGradient>
        <linearGradient id="paint4_linear_1844:16983" x1="117.983" y1="333.48" x2="117.983" y2="126.168" gradientUnits="userSpaceOnUse">
            <stop stop-color="#06018E"/>
            <stop offset="1" stop-color="#7D78EA"/>
        </linearGradient>
        <linearGradient id="paint5_linear_1844:16983" x1="146.678" y1="352.158" x2="146.678" y2="142.958" gradientUnits="userSpaceOnUse">
            <stop stop-color="#07028B"/>
            <stop offset="1" stop-color="#433EC5"/>
        </linearGradient>
        <linearGradient id="paint6_linear_1844:16983" x1="283.682" y1="9.79331" x2="348.167" y2="209.373" gradientUnits="userSpaceOnUse">
            <stop stop-color="#06018E"/>
            <stop offset="1" stop-color="#B9B6FF"/>
        </linearGradient>
        <linearGradient id="paint7_linear_1844:16983" x1="267.018" y1="156.462" x2="267.018" y2="62.7522" gradientUnits="userSpaceOnUse">
            <stop stop-color="#ACA8FF"/>
            <stop offset="1" stop-color="#8581FC"/>
        </linearGradient>
        <linearGradient id="paint8_linear_1844:16983" x1="307.597" y1="447.568" x2="307.597" y2="134.711" gradientUnits="userSpaceOnUse">
            <stop stop-color="#07028B"/>
            <stop offset="1" stop-color="#433EC5"/>
        </linearGradient>
        <linearGradient id="paint9_linear_1844:16983" x1="226.449" y1="424.29" x2="226.449" y2="109.602" gradientUnits="userSpaceOnUse">
            <stop stop-color="#06018E"/>
            <stop offset="1" stop-color="#7D78EA"/>
        </linearGradient>
        <linearGradient id="paint10_linear_1844:16983" x1="370.987" y1="394.019" x2="460.32" y2="102.794" gradientUnits="userSpaceOnUse">
            <stop stop-color="#06018E"/>
            <stop offset="0.983247" stop-color="#4A46C1"/>
        </linearGradient>
        <linearGradient id="paint11_linear_1844:16983" x1="370.987" y1="394.019" x2="460.32" y2="102.794" gradientUnits="userSpaceOnUse">
            <stop stop-color="#06018E"/>
            <stop offset="0.983247" stop-color="#4A46C1"/>
        </linearGradient>
        <linearGradient id="paint12_linear_1844:16983" x1="52.9515" y1="512.409" x2="86.6797" y2="233.345" gradientUnits="userSpaceOnUse">
            <stop stop-color="#06018E"/>
            <stop offset="0.983247" stop-color="#4A46C1"/>
        </linearGradient>
        <linearGradient id="paint13_linear_1844:16983" x1="70.9421" y1="515.028" x2="102.643" y2="244.361" gradientUnits="userSpaceOnUse">
            <stop stop-color="#06018E"/>
            <stop offset="0.983247" stop-color="#4A46C1"/>
        </linearGradient>
        <linearGradient id="paint14_linear_1844:16983" x1="10.6314" y1="392.991" x2="229.89" y2="265.77" gradientUnits="userSpaceOnUse">
            <stop stop-color="#06018E"/>
            <stop offset="1" stop-color="#CDCAFF"/>
        </linearGradient>
        <radialGradient id="paint15_radial_1844:16983" cx="0" cy="0" r="1" gradientUnits="userSpaceOnUse" gradientTransform="translate(274.744 114.174) rotate(0.0876623) scale(33.6487 16.9441)">
            <stop stop-color="#262661"/>
            <stop offset="1" stop-color="#5E5E8A" stop-opacity="0"/>
        </radialGradient>
        <radialGradient id="paint16_radial_1844:16983" cx="0" cy="0" r="1" gradientUnits="userSpaceOnUse" gradientTransform="translate(246.123 60.0664) rotate(13.8847) scale(57.7907)">
            <stop stop-color="#C4C4FF"/>
            <stop offset="0.198" stop-color="#B5B5FF"/>
            <stop offset="0.4921" stop-color="#9393E7"/>
            <stop offset="0.824727" stop-color="#555599"/>
            <stop offset="1" stop-color="#68679E"/>
        </radialGradient>
        <linearGradient id="paint17_linear_1844:16983" x1="323.638" y1="278.953" x2="323.638" y2="245.821" gradientUnits="userSpaceOnUse">
            <stop stop-color="#ACA8FF"/>
            <stop offset="1" stop-color="#8581FC"/>
        </linearGradient>
        <linearGradient id="paint18_linear_1844:16983" x1="309.291" y1="469.689" x2="309.291" y2="262.388" gradientUnits="userSpaceOnUse">
            <stop stop-color="#06018E"/>
            <stop offset="1" stop-color="#7D78EA"/>
        </linearGradient>
        <linearGradient id="paint19_linear_1844:16983" x1="337.98" y1="488.366" x2="337.98" y2="279.177" gradientUnits="userSpaceOnUse">
            <stop stop-color="#07028B"/>
            <stop offset="1" stop-color="#433EC5"/>
        </linearGradient>
        <clipPath id="clip0_1844:16983">
            <rect width="81.992" height="81.992" fill="white" transform="translate(225.389 33.667)"/>
        </clipPath>
    </defs>
</svg>
