<svg width="221" height="61" viewBox="0 0 221 61" fill="none" xmlns="http://www.w3.org/2000/svg">
<path d="M69.078 13.1002H72.75C73.646 13.1002 74.442 13.2762 75.138 13.6282C75.834 13.9722 76.374 14.4642 76.758 15.1042C77.142 15.7362 77.334 16.4682 77.334 17.3002C77.334 18.1322 77.142 18.8682 76.758 19.5082C76.374 20.1402 75.834 20.6322 75.138 20.9842C74.442 21.3282 73.646 21.5002 72.75 21.5002H69.078V13.1002ZM72.678 20.1802C73.294 20.1802 73.834 20.0642 74.298 19.8322C74.77 19.5922 75.13 19.2562 75.378 18.8242C75.634 18.3842 75.762 17.8762 75.762 17.3002C75.762 16.7242 75.634 16.2202 75.378 15.7882C75.13 15.3482 74.77 15.0122 74.298 14.7802C73.834 14.5402 73.294 14.4202 72.678 14.4202H70.638V20.1802H72.678Z" fill="white"/>
<path d="M81.728 21.5842C81.08 21.5842 80.496 21.4442 79.976 21.1642C79.456 20.8842 79.048 20.4962 78.752 20.0002C78.464 19.4962 78.32 18.9282 78.32 18.2962C78.32 17.6642 78.464 17.1002 78.752 16.6042C79.048 16.1082 79.456 15.7202 79.976 15.4402C80.496 15.1602 81.08 15.0202 81.728 15.0202C82.384 15.0202 82.972 15.1602 83.492 15.4402C84.012 15.7202 84.416 16.1082 84.704 16.6042C85 17.1002 85.148 17.6642 85.148 18.2962C85.148 18.9282 85 19.4962 84.704 20.0002C84.416 20.4962 84.012 20.8842 83.492 21.1642C82.972 21.4442 82.384 21.5842 81.728 21.5842ZM81.728 20.3002C82.28 20.3002 82.736 20.1162 83.096 19.7482C83.456 19.3802 83.636 18.8962 83.636 18.2962C83.636 17.6962 83.456 17.2122 83.096 16.8442C82.736 16.4762 82.28 16.2922 81.728 16.2922C81.176 16.2922 80.72 16.4762 80.36 16.8442C80.008 17.2122 79.832 17.6962 79.832 18.2962C79.832 18.8962 80.008 19.3802 80.36 19.7482C80.72 20.1162 81.176 20.3002 81.728 20.3002Z" fill="white"/>
<path d="M96.4026 15.0922L94.0386 21.5002H92.5986L90.9426 17.0842L89.2626 21.5002H87.8226L85.4706 15.0922H86.8866L88.5786 19.8202L90.3426 15.0922H91.6026L93.3306 19.8442L95.0706 15.0922H96.4026Z" fill="white"/>
<path d="M101.07 15.0202C101.878 15.0202 102.526 15.2562 103.014 15.7282C103.502 16.2002 103.746 16.9002 103.746 17.8282V21.5002H102.246V18.0202C102.246 17.4602 102.114 17.0402 101.85 16.7602C101.586 16.4722 101.21 16.3282 100.722 16.3282C100.17 16.3282 99.734 16.4962 99.414 16.8322C99.094 17.1602 98.934 17.6362 98.934 18.2602V21.5002H97.434V15.0922H98.862V15.9202C99.11 15.6242 99.422 15.4002 99.798 15.2482C100.174 15.0962 100.598 15.0202 101.07 15.0202Z" fill="white"/>
<path d="M105.649 12.5962H107.149V21.5002H105.649V12.5962Z" fill="white"/>
<path d="M111.998 21.5842C111.35 21.5842 110.766 21.4442 110.246 21.1642C109.726 20.8842 109.318 20.4962 109.022 20.0002C108.734 19.4962 108.59 18.9282 108.59 18.2962C108.59 17.6642 108.734 17.1002 109.022 16.6042C109.318 16.1082 109.726 15.7202 110.246 15.4402C110.766 15.1602 111.35 15.0202 111.998 15.0202C112.654 15.0202 113.242 15.1602 113.762 15.4402C114.282 15.7202 114.686 16.1082 114.974 16.6042C115.27 17.1002 115.418 17.6642 115.418 18.2962C115.418 18.9282 115.27 19.4962 114.974 20.0002C114.686 20.4962 114.282 20.8842 113.762 21.1642C113.242 21.4442 112.654 21.5842 111.998 21.5842ZM111.998 20.3002C112.55 20.3002 113.006 20.1162 113.366 19.7482C113.726 19.3802 113.906 18.8962 113.906 18.2962C113.906 17.6962 113.726 17.2122 113.366 16.8442C113.006 16.4762 112.55 16.2922 111.998 16.2922C111.446 16.2922 110.99 16.4762 110.63 16.8442C110.278 17.2122 110.102 17.6962 110.102 18.2962C110.102 18.8962 110.278 19.3802 110.63 19.7482C110.99 20.1162 111.446 20.3002 111.998 20.3002Z" fill="white"/>
<path d="M119.218 15.0202C120.162 15.0202 120.882 15.2482 121.378 15.7042C121.882 16.1522 122.134 16.8322 122.134 17.7442V21.5002H120.718V20.7202C120.534 21.0002 120.27 21.2162 119.926 21.3682C119.59 21.5122 119.182 21.5842 118.702 21.5842C118.222 21.5842 117.802 21.5042 117.442 21.3442C117.082 21.1762 116.802 20.9482 116.602 20.6602C116.41 20.3642 116.314 20.0322 116.314 19.6642C116.314 19.0882 116.526 18.6282 116.95 18.2842C117.382 17.9322 118.058 17.7562 118.978 17.7562H120.634V17.6602C120.634 17.2122 120.498 16.8682 120.226 16.6282C119.962 16.3882 119.566 16.2682 119.038 16.2682C118.678 16.2682 118.322 16.3242 117.97 16.4362C117.626 16.5482 117.334 16.7042 117.094 16.9042L116.506 15.8122C116.842 15.5562 117.246 15.3602 117.718 15.2242C118.19 15.0882 118.69 15.0202 119.218 15.0202ZM119.014 20.4922C119.39 20.4922 119.722 20.4082 120.01 20.2402C120.306 20.0642 120.514 19.8162 120.634 19.4962V18.7522H119.086C118.222 18.7522 117.79 19.0362 117.79 19.6042C117.79 19.8762 117.898 20.0922 118.114 20.2522C118.33 20.4122 118.63 20.4922 119.014 20.4922Z" fill="white"/>
<path d="M130.394 12.5962V21.5002H128.954V20.6722C128.706 20.9762 128.398 21.2042 128.03 21.3562C127.67 21.5082 127.27 21.5842 126.83 21.5842C126.214 21.5842 125.658 21.4482 125.162 21.1762C124.674 20.9042 124.29 20.5202 124.01 20.0242C123.73 19.5202 123.59 18.9442 123.59 18.2962C123.59 17.6482 123.73 17.0762 124.01 16.5802C124.29 16.0842 124.674 15.7002 125.162 15.4282C125.658 15.1562 126.214 15.0202 126.83 15.0202C127.254 15.0202 127.642 15.0922 127.994 15.2362C128.346 15.3802 128.646 15.5962 128.894 15.8842V12.5962H130.394ZM127.01 20.3002C127.37 20.3002 127.694 20.2202 127.982 20.0602C128.27 19.8922 128.498 19.6562 128.666 19.3522C128.834 19.0482 128.918 18.6962 128.918 18.2962C128.918 17.8962 128.834 17.5442 128.666 17.2402C128.498 16.9362 128.27 16.7042 127.982 16.5442C127.694 16.3762 127.37 16.2922 127.01 16.2922C126.65 16.2922 126.326 16.3762 126.038 16.5442C125.75 16.7042 125.522 16.9362 125.354 17.2402C125.186 17.5442 125.102 17.8962 125.102 18.2962C125.102 18.6962 125.186 19.0482 125.354 19.3522C125.522 19.6562 125.75 19.8922 126.038 20.0602C126.326 20.2202 126.65 20.3002 127.01 20.3002Z" fill="white"/>
<path d="M138.552 21.5842C137.904 21.5842 137.32 21.4442 136.8 21.1642C136.28 20.8842 135.872 20.4962 135.576 20.0002C135.288 19.4962 135.144 18.9282 135.144 18.2962C135.144 17.6642 135.288 17.1002 135.576 16.6042C135.872 16.1082 136.28 15.7202 136.8 15.4402C137.32 15.1602 137.904 15.0202 138.552 15.0202C139.208 15.0202 139.796 15.1602 140.316 15.4402C140.836 15.7202 141.24 16.1082 141.528 16.6042C141.824 17.1002 141.972 17.6642 141.972 18.2962C141.972 18.9282 141.824 19.4962 141.528 20.0002C141.24 20.4962 140.836 20.8842 140.316 21.1642C139.796 21.4442 139.208 21.5842 138.552 21.5842ZM138.552 20.3002C139.104 20.3002 139.56 20.1162 139.92 19.7482C140.28 19.3802 140.46 18.8962 140.46 18.2962C140.46 17.6962 140.28 17.2122 139.92 16.8442C139.56 16.4762 139.104 16.2922 138.552 16.2922C138 16.2922 137.544 16.4762 137.184 16.8442C136.832 17.2122 136.656 17.6962 136.656 18.2962C136.656 18.8962 136.832 19.3802 137.184 19.7482C137.544 20.1162 138 20.3002 138.552 20.3002Z" fill="white"/>
<path d="M147.043 15.0202C147.851 15.0202 148.499 15.2562 148.987 15.7282C149.475 16.2002 149.719 16.9002 149.719 17.8282V21.5002H148.219V18.0202C148.219 17.4602 148.087 17.0402 147.823 16.7602C147.559 16.4722 147.183 16.3282 146.695 16.3282C146.143 16.3282 145.707 16.4962 145.387 16.8322C145.067 17.1602 144.907 17.6362 144.907 18.2602V21.5002H143.407V15.0922H144.835V15.9202C145.083 15.6242 145.395 15.4002 145.771 15.2482C146.147 15.0962 146.571 15.0202 147.043 15.0202Z" fill="white"/>
<path d="M158.79 21.1522C158.614 21.2962 158.398 21.4042 158.142 21.4762C157.894 21.5482 157.63 21.5842 157.35 21.5842C156.646 21.5842 156.102 21.4002 155.718 21.0322C155.334 20.6642 155.142 20.1282 155.142 19.4242V16.3402H154.086V15.1402H155.142V13.6762H156.642V15.1402H158.358V16.3402H156.642V19.3882C156.642 19.7002 156.718 19.9402 156.87 20.1082C157.022 20.2682 157.242 20.3482 157.53 20.3482C157.866 20.3482 158.146 20.2602 158.37 20.0842L158.79 21.1522Z" fill="white"/>
<path d="M163.66 15.0202C164.468 15.0202 165.116 15.2562 165.604 15.7282C166.092 16.2002 166.336 16.9002 166.336 17.8282V21.5002H164.836V18.0202C164.836 17.4602 164.704 17.0402 164.44 16.7602C164.176 16.4722 163.8 16.3282 163.312 16.3282C162.76 16.3282 162.324 16.4962 162.004 16.8322C161.684 17.1602 161.524 17.6362 161.524 18.2602V21.5002H160.024V12.5962H161.524V15.8362C161.772 15.5722 162.076 15.3722 162.436 15.2362C162.804 15.0922 163.212 15.0202 163.66 15.0202Z" fill="white"/>
<path d="M174.321 18.3322C174.321 18.4362 174.313 18.5842 174.297 18.7762H169.269C169.357 19.2482 169.585 19.6242 169.953 19.9042C170.329 20.1762 170.793 20.3122 171.345 20.3122C172.049 20.3122 172.629 20.0802 173.085 19.6162L173.889 20.5402C173.601 20.8842 173.237 21.1442 172.797 21.3202C172.357 21.4962 171.861 21.5842 171.309 21.5842C170.605 21.5842 169.985 21.4442 169.449 21.1642C168.913 20.8842 168.497 20.4962 168.201 20.0002C167.913 19.4962 167.769 18.9282 167.769 18.2962C167.769 17.6722 167.909 17.1122 168.189 16.6162C168.477 16.1122 168.873 15.7202 169.377 15.4402C169.881 15.1602 170.449 15.0202 171.081 15.0202C171.705 15.0202 172.261 15.1602 172.749 15.4402C173.245 15.7122 173.629 16.1002 173.901 16.6042C174.181 17.1002 174.321 17.6762 174.321 18.3322ZM171.081 16.2202C170.601 16.2202 170.193 16.3642 169.857 16.6522C169.529 16.9322 169.329 17.3082 169.257 17.7802H172.893C172.829 17.3162 172.633 16.9402 172.305 16.6522C171.977 16.3642 171.569 16.2202 171.081 16.2202Z" fill="white"/>
<path d="M80.534 38.6242H83.24V44.7622C82.448 45.3929 81.524 45.8769 80.468 46.2142C79.412 46.5515 78.3266 46.7202 77.212 46.7202C75.6426 46.7202 74.2273 46.3829 72.966 45.7082C71.7046 45.0189 70.7146 44.0729 69.996 42.8702C69.2773 41.6675 68.918 40.3109 68.918 38.8002C68.918 37.2895 69.2773 35.9329 69.996 34.7302C70.7146 33.5275 71.7046 32.5889 72.966 31.9142C74.242 31.2249 75.672 30.8802 77.256 30.8802C78.5466 30.8802 79.72 31.0929 80.776 31.5182C81.832 31.9435 82.7193 32.5669 83.438 33.3882L81.634 35.1482C80.4606 33.9749 79.0453 33.3882 77.388 33.3882C76.3026 33.3882 75.3346 33.6155 74.484 34.0702C73.648 34.5249 72.988 35.1629 72.504 35.9842C72.0346 36.8055 71.8 37.7442 71.8 38.8002C71.8 39.8269 72.0346 40.7509 72.504 41.5722C72.988 42.3935 73.648 43.0389 74.484 43.5082C75.3346 43.9775 76.2953 44.2122 77.366 44.2122C78.5686 44.2122 79.6246 43.9482 80.534 43.4202V38.6242Z" fill="white"/>
<path d="M92.0281 46.6542C90.8401 46.6542 89.7694 46.3975 88.8161 45.8842C87.8628 45.3709 87.1148 44.6595 86.5721 43.7502C86.0441 42.8262 85.7801 41.7849 85.7801 40.6262C85.7801 39.4675 86.0441 38.4335 86.5721 37.5242C87.1148 36.6149 87.8628 35.9035 88.8161 35.3902C89.7694 34.8769 90.8401 34.6202 92.0281 34.6202C93.2308 34.6202 94.3088 34.8769 95.2621 35.3902C96.2154 35.9035 96.9561 36.6149 97.4841 37.5242C98.0268 38.4335 98.2981 39.4675 98.2981 40.6262C98.2981 41.7849 98.0268 42.8262 97.4841 43.7502C96.9561 44.6595 96.2154 45.3709 95.2621 45.8842C94.3088 46.3975 93.2308 46.6542 92.0281 46.6542ZM92.0281 44.3002C93.0401 44.3002 93.8761 43.9629 94.5361 43.2882C95.1961 42.6135 95.5261 41.7262 95.5261 40.6262C95.5261 39.5262 95.1961 38.6389 94.5361 37.9642C93.8761 37.2895 93.0401 36.9522 92.0281 36.9522C91.0161 36.9522 90.1801 37.2895 89.5201 37.9642C88.8748 38.6389 88.5521 39.5262 88.5521 40.6262C88.5521 41.7262 88.8748 42.6135 89.5201 43.2882C90.1801 43.9629 91.0161 44.3002 92.0281 44.3002Z" fill="white"/>
<path d="M106.208 46.6542C105.02 46.6542 103.949 46.3975 102.996 45.8842C102.042 45.3709 101.294 44.6595 100.752 43.7502C100.224 42.8262 99.9598 41.7849 99.9598 40.6262C99.9598 39.4675 100.224 38.4335 100.752 37.5242C101.294 36.6149 102.042 35.9035 102.996 35.3902C103.949 34.8769 105.02 34.6202 106.208 34.6202C107.41 34.6202 108.488 34.8769 109.442 35.3902C110.395 35.9035 111.136 36.6149 111.664 37.5242C112.206 38.4335 112.478 39.4675 112.478 40.6262C112.478 41.7849 112.206 42.8262 111.664 43.7502C111.136 44.6595 110.395 45.3709 109.442 45.8842C108.488 46.3975 107.41 46.6542 106.208 46.6542ZM106.208 44.3002C107.22 44.3002 108.056 43.9629 108.716 43.2882C109.376 42.6135 109.706 41.7262 109.706 40.6262C109.706 39.5262 109.376 38.6389 108.716 37.9642C108.056 37.2895 107.22 36.9522 106.208 36.9522C105.196 36.9522 104.36 37.2895 103.7 37.9642C103.054 38.6389 102.732 39.5262 102.732 40.6262C102.732 41.7262 103.054 42.6135 103.7 43.2882C104.36 43.9629 105.196 44.3002 106.208 44.3002Z" fill="white"/>
<path d="M126.767 34.7522V44.7182C126.767 48.8542 124.655 50.9222 120.431 50.9222C119.302 50.9222 118.231 50.7755 117.219 50.4822C116.207 50.2035 115.371 49.7929 114.711 49.2502L115.943 47.1822C116.457 47.6075 117.102 47.9449 117.879 48.1942C118.671 48.4582 119.471 48.5902 120.277 48.5902C121.568 48.5902 122.514 48.2969 123.115 47.7102C123.717 47.1235 124.017 46.2289 124.017 45.0262V44.4102C123.548 44.9235 122.976 45.3122 122.301 45.5762C121.627 45.8402 120.886 45.9722 120.079 45.9722C118.965 45.9722 117.953 45.7375 117.043 45.2682C116.149 44.7842 115.437 44.1095 114.909 43.2442C114.396 42.3789 114.139 41.3889 114.139 40.2742C114.139 39.1595 114.396 38.1769 114.909 37.3262C115.437 36.4609 116.149 35.7935 117.043 35.3242C117.953 34.8549 118.965 34.6202 120.079 34.6202C120.93 34.6202 121.7 34.7595 122.389 35.0382C123.093 35.3169 123.68 35.7422 124.149 36.3142V34.7522H126.767ZM120.497 43.6402C121.539 43.6402 122.389 43.3322 123.049 42.7162C123.724 42.0855 124.061 41.2715 124.061 40.2742C124.061 39.2915 123.724 38.4922 123.049 37.8762C122.389 37.2602 121.539 36.9522 120.497 36.9522C119.441 36.9522 118.576 37.2602 117.901 37.8762C117.241 38.4922 116.911 39.2915 116.911 40.2742C116.911 41.2715 117.241 42.0855 117.901 42.7162C118.576 43.3322 119.441 43.6402 120.497 43.6402Z" fill="white"/>
<path d="M130.383 30.1762H133.133V46.5002H130.383V30.1762Z" fill="white"/>
<path d="M147.786 40.6922C147.786 40.8829 147.772 41.1542 147.742 41.5062H138.524C138.686 42.3715 139.104 43.0609 139.778 43.5742C140.468 44.0729 141.318 44.3222 142.33 44.3222C143.621 44.3222 144.684 43.8969 145.52 43.0462L146.994 44.7402C146.466 45.3709 145.799 45.8475 144.992 46.1702C144.186 46.4929 143.276 46.6542 142.264 46.6542C140.974 46.6542 139.837 46.3975 138.854 45.8842C137.872 45.3709 137.109 44.6595 136.566 43.7502C136.038 42.8262 135.774 41.7849 135.774 40.6262C135.774 39.4822 136.031 38.4555 136.544 37.5462C137.072 36.6222 137.798 35.9035 138.722 35.3902C139.646 34.8769 140.688 34.6202 141.846 34.6202C142.99 34.6202 144.01 34.8769 144.904 35.3902C145.814 35.8889 146.518 36.6002 147.016 37.5242C147.53 38.4335 147.786 39.4895 147.786 40.6922ZM141.846 36.8202C140.966 36.8202 140.218 37.0842 139.602 37.6122C139.001 38.1255 138.634 38.8149 138.502 39.6802H145.168C145.051 38.8295 144.692 38.1402 144.09 37.6122C143.489 37.0842 142.741 36.8202 141.846 36.8202Z" fill="white"/>
<path d="M163.108 31.1002C164.443 31.1002 165.601 31.3202 166.584 31.7602C167.581 32.2002 168.344 32.8309 168.872 33.6522C169.4 34.4735 169.664 35.4489 169.664 36.5782C169.664 37.6929 169.4 38.6682 168.872 39.5042C168.344 40.3255 167.581 40.9562 166.584 41.3962C165.601 41.8362 164.443 42.0562 163.108 42.0562H159.632V46.5002H156.772V31.1002H163.108ZM162.976 39.6362C164.223 39.6362 165.169 39.3722 165.814 38.8442C166.459 38.3162 166.782 37.5609 166.782 36.5782C166.782 35.5955 166.459 34.8402 165.814 34.3122C165.169 33.7842 164.223 33.5202 162.976 33.5202H159.632V39.6362H162.976Z" fill="white"/>
<path d="M172.471 30.1762H175.221V46.5002H172.471V30.1762Z" fill="white"/>
<path d="M183.318 34.6202C185.049 34.6202 186.369 35.0382 187.278 35.8742C188.202 36.6955 188.664 37.9422 188.664 39.6142V46.5002H186.068V45.0702C185.731 45.5835 185.247 45.9795 184.616 46.2582C184 46.5222 183.252 46.6542 182.372 46.6542C181.492 46.6542 180.722 46.5075 180.062 46.2142C179.402 45.9062 178.889 45.4882 178.522 44.9602C178.17 44.4175 177.994 43.8089 177.994 43.1342C177.994 42.0782 178.383 41.2349 179.16 40.6042C179.952 39.9589 181.191 39.6362 182.878 39.6362H185.914V39.4602C185.914 38.6389 185.665 38.0082 185.166 37.5682C184.682 37.1282 183.956 36.9082 182.988 36.9082C182.328 36.9082 181.675 37.0109 181.03 37.2162C180.399 37.4215 179.864 37.7075 179.424 38.0742L178.346 36.0722C178.962 35.6029 179.703 35.2435 180.568 34.9942C181.433 34.7449 182.35 34.6202 183.318 34.6202ZM182.944 44.6522C183.633 44.6522 184.242 44.4982 184.77 44.1902C185.313 43.8675 185.694 43.4129 185.914 42.8262V41.4622H183.076C181.492 41.4622 180.7 41.9829 180.7 43.0242C180.7 43.5229 180.898 43.9189 181.294 44.2122C181.69 44.5055 182.24 44.6522 182.944 44.6522Z" fill="white"/>
<path d="M202.979 34.7522L197.479 47.4462C196.965 48.7222 196.342 49.6169 195.609 50.1302C194.875 50.6582 193.988 50.9222 192.947 50.9222C192.36 50.9222 191.781 50.8269 191.209 50.6362C190.637 50.4455 190.167 50.1815 189.801 49.8442L190.901 47.8202C191.165 48.0695 191.473 48.2675 191.825 48.4142C192.191 48.5609 192.558 48.6342 192.925 48.6342C193.409 48.6342 193.805 48.5095 194.113 48.2602C194.435 48.0109 194.729 47.5929 194.993 47.0062L195.191 46.5442L190.065 34.7522H192.925L196.621 43.4422L200.339 34.7522H202.979Z" fill="white"/>
<rect x="1.44922" y="1" width="219" height="59" rx="5.5" stroke="white"/>
<path d="M20.6992 46.7918V14.2085C20.6992 13.0776 21.3509 12.081 22.3092 11.621L41.1884 30.5001L22.3092 49.3793C21.3509 48.9001 20.6992 47.9226 20.6992 46.7918ZM47.1684 36.4801L26.5451 48.4018L42.8176 32.1293L47.1684 36.4801ZM53.5892 28.2193C54.2409 28.7368 54.72 29.5418 54.72 30.5001C54.72 31.4585 54.2984 32.2251 53.6275 32.7618L49.2384 35.2918L44.4467 30.5001L49.2384 25.7085L53.5892 28.2193ZM26.5451 12.5985L47.1684 24.5201L42.8176 28.871L26.5451 12.5985Z" fill="white"/>
</svg>
