<svg width="201" height="61" viewBox="0 0 201 61" fill="none" xmlns="http://www.w3.org/2000/svg">
<path d="M69.0778 13.1002H72.7498C73.6458 13.1002 74.4418 13.2762 75.1378 13.6282C75.8338 13.9722 76.3738 14.4642 76.7578 15.1042C77.1418 15.7362 77.3338 16.4682 77.3338 17.3002C77.3338 18.1322 77.1418 18.8682 76.7578 19.5082C76.3738 20.1402 75.8338 20.6322 75.1378 20.9842C74.4418 21.3282 73.6458 21.5002 72.7498 21.5002H69.0778V13.1002ZM72.6778 20.1802C73.2938 20.1802 73.8338 20.0642 74.2978 19.8322C74.7698 19.5922 75.1298 19.2562 75.3778 18.8242C75.6338 18.3842 75.7618 17.8762 75.7618 17.3002C75.7618 16.7242 75.6338 16.2202 75.3778 15.7882C75.1298 15.3482 74.7698 15.0122 74.2978 14.7802C73.8338 14.5402 73.2938 14.4202 72.6778 14.4202H70.6378V20.1802H72.6778Z" fill="white"/>
<path d="M81.7279 21.5842C81.0799 21.5842 80.4959 21.4442 79.9759 21.1642C79.4559 20.8842 79.0479 20.4962 78.7519 20.0002C78.4639 19.4962 78.3199 18.9282 78.3199 18.2962C78.3199 17.6642 78.4639 17.1002 78.7519 16.6042C79.0479 16.1082 79.4559 15.7202 79.9759 15.4402C80.4959 15.1602 81.0799 15.0202 81.7279 15.0202C82.3839 15.0202 82.9719 15.1602 83.4919 15.4402C84.0119 15.7202 84.4159 16.1082 84.7039 16.6042C84.9999 17.1002 85.1479 17.6642 85.1479 18.2962C85.1479 18.9282 84.9999 19.4962 84.7039 20.0002C84.4159 20.4962 84.0119 20.8842 83.4919 21.1642C82.9719 21.4442 82.3839 21.5842 81.7279 21.5842ZM81.7279 20.3002C82.2799 20.3002 82.7359 20.1162 83.0959 19.7482C83.4559 19.3802 83.6359 18.8962 83.6359 18.2962C83.6359 17.6962 83.4559 17.2122 83.0959 16.8442C82.7359 16.4762 82.2799 16.2922 81.7279 16.2922C81.1759 16.2922 80.7199 16.4762 80.3599 16.8442C80.0079 17.2122 79.8319 17.6962 79.8319 18.2962C79.8319 18.8962 80.0079 19.3802 80.3599 19.7482C80.7199 20.1162 81.1759 20.3002 81.7279 20.3002Z" fill="white"/>
<path d="M96.4025 15.0922L94.0385 21.5002H92.5985L90.9425 17.0842L89.2625 21.5002H87.8225L85.4705 15.0922H86.8865L88.5785 19.8202L90.3425 15.0922H91.6025L93.3305 19.8442L95.0705 15.0922H96.4025Z" fill="white"/>
<path d="M101.07 15.0202C101.878 15.0202 102.526 15.2562 103.014 15.7282C103.502 16.2002 103.746 16.9002 103.746 17.8282V21.5002H102.246V18.0202C102.246 17.4602 102.114 17.0402 101.85 16.7602C101.586 16.4722 101.21 16.3282 100.722 16.3282C100.17 16.3282 99.7338 16.4962 99.4138 16.8322C99.0938 17.1602 98.9338 17.6362 98.9338 18.2602V21.5002H97.4338V15.0922H98.8618V15.9202C99.1098 15.6242 99.4218 15.4002 99.7978 15.2482C100.174 15.0962 100.598 15.0202 101.07 15.0202Z" fill="white"/>
<path d="M105.649 12.5962H107.149V21.5002H105.649V12.5962Z" fill="white"/>
<path d="M111.997 21.5842C111.349 21.5842 110.765 21.4442 110.245 21.1642C109.725 20.8842 109.317 20.4962 109.021 20.0002C108.733 19.4962 108.589 18.9282 108.589 18.2962C108.589 17.6642 108.733 17.1002 109.021 16.6042C109.317 16.1082 109.725 15.7202 110.245 15.4402C110.765 15.1602 111.349 15.0202 111.997 15.0202C112.653 15.0202 113.241 15.1602 113.761 15.4402C114.281 15.7202 114.685 16.1082 114.973 16.6042C115.269 17.1002 115.417 17.6642 115.417 18.2962C115.417 18.9282 115.269 19.4962 114.973 20.0002C114.685 20.4962 114.281 20.8842 113.761 21.1642C113.241 21.4442 112.653 21.5842 111.997 21.5842ZM111.997 20.3002C112.549 20.3002 113.005 20.1162 113.365 19.7482C113.725 19.3802 113.905 18.8962 113.905 18.2962C113.905 17.6962 113.725 17.2122 113.365 16.8442C113.005 16.4762 112.549 16.2922 111.997 16.2922C111.445 16.2922 110.989 16.4762 110.629 16.8442C110.277 17.2122 110.101 17.6962 110.101 18.2962C110.101 18.8962 110.277 19.3802 110.629 19.7482C110.989 20.1162 111.445 20.3002 111.997 20.3002Z" fill="white"/>
<path d="M119.218 15.0202C120.162 15.0202 120.882 15.2482 121.378 15.7042C121.882 16.1522 122.134 16.8322 122.134 17.7442V21.5002H120.718V20.7202C120.534 21.0002 120.27 21.2162 119.926 21.3682C119.59 21.5122 119.182 21.5842 118.702 21.5842C118.222 21.5842 117.802 21.5042 117.442 21.3442C117.082 21.1762 116.802 20.9482 116.602 20.6602C116.41 20.3642 116.314 20.0322 116.314 19.6642C116.314 19.0882 116.526 18.6282 116.95 18.2842C117.382 17.9322 118.058 17.7562 118.978 17.7562H120.634V17.6602C120.634 17.2122 120.498 16.8682 120.226 16.6282C119.962 16.3882 119.566 16.2682 119.038 16.2682C118.678 16.2682 118.322 16.3242 117.97 16.4362C117.626 16.5482 117.334 16.7042 117.094 16.9042L116.506 15.8122C116.842 15.5562 117.246 15.3602 117.718 15.2242C118.19 15.0882 118.69 15.0202 119.218 15.0202ZM119.014 20.4922C119.39 20.4922 119.722 20.4082 120.01 20.2402C120.306 20.0642 120.514 19.8162 120.634 19.4962V18.7522H119.086C118.222 18.7522 117.79 19.0362 117.79 19.6042C117.79 19.8762 117.898 20.0922 118.114 20.2522C118.33 20.4122 118.63 20.4922 119.014 20.4922Z" fill="white"/>
<path d="M130.393 12.5962V21.5002H128.953V20.6722C128.705 20.9762 128.397 21.2042 128.029 21.3562C127.669 21.5082 127.269 21.5842 126.829 21.5842C126.213 21.5842 125.657 21.4482 125.161 21.1762C124.673 20.9042 124.289 20.5202 124.009 20.0242C123.729 19.5202 123.589 18.9442 123.589 18.2962C123.589 17.6482 123.729 17.0762 124.009 16.5802C124.289 16.0842 124.673 15.7002 125.161 15.4282C125.657 15.1562 126.213 15.0202 126.829 15.0202C127.253 15.0202 127.641 15.0922 127.993 15.2362C128.345 15.3802 128.645 15.5962 128.893 15.8842V12.5962H130.393ZM127.009 20.3002C127.369 20.3002 127.693 20.2202 127.981 20.0602C128.269 19.8922 128.497 19.6562 128.665 19.3522C128.833 19.0482 128.917 18.6962 128.917 18.2962C128.917 17.8962 128.833 17.5442 128.665 17.2402C128.497 16.9362 128.269 16.7042 127.981 16.5442C127.693 16.3762 127.369 16.2922 127.009 16.2922C126.649 16.2922 126.325 16.3762 126.037 16.5442C125.749 16.7042 125.521 16.9362 125.353 17.2402C125.185 17.5442 125.101 17.8962 125.101 18.2962C125.101 18.6962 125.185 19.0482 125.353 19.3522C125.521 19.6562 125.749 19.8922 126.037 20.0602C126.325 20.2202 126.649 20.3002 127.009 20.3002Z" fill="white"/>
<path d="M138.552 21.5842C137.904 21.5842 137.32 21.4442 136.8 21.1642C136.28 20.8842 135.872 20.4962 135.576 20.0002C135.288 19.4962 135.144 18.9282 135.144 18.2962C135.144 17.6642 135.288 17.1002 135.576 16.6042C135.872 16.1082 136.28 15.7202 136.8 15.4402C137.32 15.1602 137.904 15.0202 138.552 15.0202C139.208 15.0202 139.796 15.1602 140.316 15.4402C140.836 15.7202 141.24 16.1082 141.528 16.6042C141.824 17.1002 141.972 17.6642 141.972 18.2962C141.972 18.9282 141.824 19.4962 141.528 20.0002C141.24 20.4962 140.836 20.8842 140.316 21.1642C139.796 21.4442 139.208 21.5842 138.552 21.5842ZM138.552 20.3002C139.104 20.3002 139.56 20.1162 139.92 19.7482C140.28 19.3802 140.46 18.8962 140.46 18.2962C140.46 17.6962 140.28 17.2122 139.92 16.8442C139.56 16.4762 139.104 16.2922 138.552 16.2922C138 16.2922 137.544 16.4762 137.184 16.8442C136.832 17.2122 136.656 17.6962 136.656 18.2962C136.656 18.8962 136.832 19.3802 137.184 19.7482C137.544 20.1162 138 20.3002 138.552 20.3002Z" fill="white"/>
<path d="M147.043 15.0202C147.851 15.0202 148.499 15.2562 148.987 15.7282C149.475 16.2002 149.718 16.9002 149.718 17.8282V21.5002H148.218V18.0202C148.218 17.4602 148.087 17.0402 147.823 16.7602C147.559 16.4722 147.183 16.3282 146.695 16.3282C146.143 16.3282 145.706 16.4962 145.386 16.8322C145.066 17.1602 144.907 17.6362 144.907 18.2602V21.5002H143.407V15.0922H144.835V15.9202C145.083 15.6242 145.395 15.4002 145.771 15.2482C146.146 15.0962 146.571 15.0202 147.043 15.0202Z" fill="white"/>
<path d="M158.79 21.1522C158.614 21.2962 158.398 21.4042 158.142 21.4762C157.894 21.5482 157.63 21.5842 157.35 21.5842C156.646 21.5842 156.102 21.4002 155.718 21.0322C155.334 20.6642 155.142 20.1282 155.142 19.4242V16.3402H154.086V15.1402H155.142V13.6762H156.642V15.1402H158.358V16.3402H156.642V19.3882C156.642 19.7002 156.718 19.9402 156.87 20.1082C157.022 20.2682 157.242 20.3482 157.53 20.3482C157.866 20.3482 158.146 20.2602 158.37 20.0842L158.79 21.1522Z" fill="white"/>
<path d="M163.66 15.0202C164.468 15.0202 165.116 15.2562 165.604 15.7282C166.092 16.2002 166.336 16.9002 166.336 17.8282V21.5002H164.836V18.0202C164.836 17.4602 164.704 17.0402 164.44 16.7602C164.176 16.4722 163.8 16.3282 163.312 16.3282C162.76 16.3282 162.324 16.4962 162.004 16.8322C161.684 17.1602 161.524 17.6362 161.524 18.2602V21.5002H160.024V12.5962H161.524V15.8362C161.772 15.5722 162.076 15.3722 162.436 15.2362C162.804 15.0922 163.212 15.0202 163.66 15.0202Z" fill="white"/>
<path d="M174.321 18.3322C174.321 18.4362 174.313 18.5842 174.297 18.7762H169.269C169.357 19.2482 169.585 19.6242 169.953 19.9042C170.329 20.1762 170.793 20.3122 171.345 20.3122C172.049 20.3122 172.629 20.0802 173.085 19.6162L173.889 20.5402C173.601 20.8842 173.237 21.1442 172.797 21.3202C172.357 21.4962 171.861 21.5842 171.309 21.5842C170.605 21.5842 169.985 21.4442 169.449 21.1642C168.913 20.8842 168.497 20.4962 168.201 20.0002C167.913 19.4962 167.769 18.9282 167.769 18.2962C167.769 17.6722 167.909 17.1122 168.189 16.6162C168.477 16.1122 168.873 15.7202 169.377 15.4402C169.881 15.1602 170.449 15.0202 171.081 15.0202C171.705 15.0202 172.261 15.1602 172.749 15.4402C173.245 15.7122 173.629 16.1002 173.901 16.6042C174.181 17.1002 174.321 17.6762 174.321 18.3322ZM171.081 16.2202C170.601 16.2202 170.193 16.3642 169.857 16.6522C169.529 16.9322 169.329 17.3082 169.257 17.7802H172.893C172.829 17.3162 172.633 16.9402 172.305 16.6522C171.977 16.3642 171.569 16.2202 171.081 16.2202Z" fill="white"/>
<path d="M80.0058 42.9362H72.3058L70.7878 46.5002H67.8398L74.7698 31.1002H77.5858L84.5378 46.5002H81.5458L80.0058 42.9362ZM79.0598 40.6922L76.1558 33.9602L73.2738 40.6922H79.0598Z" fill="white"/>
<path d="M92.7444 34.6202C93.8884 34.6202 94.9077 34.8695 95.8024 35.3682C96.7117 35.8669 97.423 36.5709 97.9364 37.4802C98.4497 38.3895 98.7064 39.4382 98.7064 40.6262C98.7064 41.8142 98.4497 42.8702 97.9364 43.7942C97.423 44.7035 96.7117 45.4075 95.8024 45.9062C94.9077 46.4049 93.8884 46.6542 92.7444 46.6542C91.1604 46.6542 89.9064 46.1262 88.9824 45.0702V50.7682H86.2324V34.7522H88.8504V36.2922C89.305 35.7349 89.8624 35.3169 90.5224 35.0382C91.197 34.7595 91.9377 34.6202 92.7444 34.6202ZM92.4364 44.3002C93.4484 44.3002 94.277 43.9629 94.9224 43.2882C95.5824 42.6135 95.9124 41.7262 95.9124 40.6262C95.9124 39.5262 95.5824 38.6389 94.9224 37.9642C94.277 37.2895 93.4484 36.9522 92.4364 36.9522C91.7764 36.9522 91.1824 37.1062 90.6544 37.4142C90.1264 37.7075 89.7084 38.1329 89.4004 38.6902C89.0924 39.2475 88.9384 39.8929 88.9384 40.6262C88.9384 41.3595 89.0924 42.0049 89.4004 42.5622C89.7084 43.1195 90.1264 43.5522 90.6544 43.8602C91.1824 44.1535 91.7764 44.3002 92.4364 44.3002Z" fill="white"/>
<path d="M107.826 34.6202C108.97 34.6202 109.99 34.8695 110.884 35.3682C111.794 35.8669 112.505 36.5709 113.018 37.4802C113.532 38.3895 113.788 39.4382 113.788 40.6262C113.788 41.8142 113.532 42.8702 113.018 43.7942C112.505 44.7035 111.794 45.4075 110.884 45.9062C109.99 46.4049 108.97 46.6542 107.826 46.6542C106.242 46.6542 104.988 46.1262 104.064 45.0702V50.7682H101.314V34.7522H103.932V36.2922C104.387 35.7349 104.944 35.3169 105.604 35.0382C106.279 34.7595 107.02 34.6202 107.826 34.6202ZM107.518 44.3002C108.53 44.3002 109.359 43.9629 110.004 43.2882C110.664 42.6135 110.994 41.7262 110.994 40.6262C110.994 39.5262 110.664 38.6389 110.004 37.9642C109.359 37.2895 108.53 36.9522 107.518 36.9522C106.858 36.9522 106.264 37.1062 105.736 37.4142C105.208 37.7075 104.79 38.1329 104.482 38.6902C104.174 39.2475 104.02 39.8929 104.02 40.6262C104.02 41.3595 104.174 42.0049 104.482 42.5622C104.79 43.1195 105.208 43.5522 105.736 43.8602C106.264 44.1535 106.858 44.3002 107.518 44.3002Z" fill="white"/>
<path d="M127.514 46.7202C126.326 46.7202 125.175 46.5515 124.061 46.2142C122.961 45.8769 122.088 45.4295 121.443 44.8722L122.432 42.6502C123.063 43.1489 123.833 43.5595 124.743 43.8822C125.667 44.1902 126.59 44.3442 127.514 44.3442C128.659 44.3442 129.509 44.1609 130.067 43.7942C130.639 43.4275 130.924 42.9435 130.924 42.3422C130.924 41.9022 130.763 41.5429 130.441 41.2642C130.133 40.9709 129.736 40.7435 129.252 40.5822C128.768 40.4209 128.108 40.2375 127.272 40.0322C126.099 39.7535 125.146 39.4749 124.412 39.1962C123.694 38.9175 123.07 38.4849 122.542 37.8982C122.029 37.2969 121.772 36.4902 121.772 35.4782C121.772 34.6275 122 33.8575 122.454 33.1682C122.924 32.4642 123.62 31.9069 124.544 31.4962C125.483 31.0855 126.627 30.8802 127.977 30.8802C128.915 30.8802 129.839 30.9975 130.749 31.2322C131.658 31.4669 132.443 31.8042 133.103 32.2442L132.201 34.4662C131.526 34.0702 130.822 33.7695 130.089 33.5642C129.355 33.3589 128.644 33.2562 127.955 33.2562C126.825 33.2562 125.982 33.4469 125.424 33.8282C124.882 34.2095 124.611 34.7155 124.611 35.3462C124.611 35.7862 124.764 36.1455 125.072 36.4242C125.395 36.7029 125.799 36.9229 126.283 37.0842C126.767 37.2455 127.427 37.4289 128.263 37.6342C129.407 37.8982 130.345 38.1769 131.078 38.4702C131.812 38.7489 132.435 39.1815 132.949 39.7682C133.477 40.3549 133.741 41.1469 133.741 42.1442C133.741 42.9949 133.506 43.7649 133.036 44.4542C132.582 45.1435 131.885 45.6935 130.946 46.1042C130.008 46.5149 128.864 46.7202 127.514 46.7202Z" fill="white"/>
<path d="M143.374 45.8622C143.052 46.1262 142.656 46.3242 142.186 46.4562C141.732 46.5882 141.248 46.6542 140.734 46.6542C139.444 46.6542 138.446 46.3169 137.742 45.6422C137.038 44.9675 136.686 43.9849 136.686 42.6942V37.0402H134.75V34.8402H136.686V32.1562H139.436V34.8402H142.582V37.0402H139.436V42.6282C139.436 43.2002 139.576 43.6402 139.854 43.9482C140.133 44.2415 140.536 44.3882 141.064 44.3882C141.68 44.3882 142.194 44.2269 142.604 43.9042L143.374 45.8622Z" fill="white"/>
<path d="M150.53 46.6542C149.342 46.6542 148.271 46.3975 147.318 45.8842C146.365 45.3709 145.617 44.6595 145.074 43.7502C144.546 42.8262 144.282 41.7849 144.282 40.6262C144.282 39.4675 144.546 38.4335 145.074 37.5242C145.617 36.6149 146.365 35.9035 147.318 35.3902C148.271 34.8769 149.342 34.6202 150.53 34.6202C151.733 34.6202 152.811 34.8769 153.764 35.3902C154.717 35.9035 155.458 36.6149 155.986 37.5242C156.529 38.4335 156.8 39.4675 156.8 40.6262C156.8 41.7849 156.529 42.8262 155.986 43.7502C155.458 44.6595 154.717 45.3709 153.764 45.8842C152.811 46.3975 151.733 46.6542 150.53 46.6542ZM150.53 44.3002C151.542 44.3002 152.378 43.9629 153.038 43.2882C153.698 42.6135 154.028 41.7262 154.028 40.6262C154.028 39.5262 153.698 38.6389 153.038 37.9642C152.378 37.2895 151.542 36.9522 150.53 36.9522C149.518 36.9522 148.682 37.2895 148.022 37.9642C147.377 38.6389 147.054 39.5262 147.054 40.6262C147.054 41.7262 147.377 42.6135 148.022 43.2882C148.682 43.9629 149.518 44.3002 150.53 44.3002Z" fill="white"/>
<path d="M162.048 36.4682C162.84 35.2362 164.233 34.6202 166.228 34.6202V37.2382C165.993 37.1942 165.78 37.1722 165.59 37.1722C164.519 37.1722 163.683 37.4875 163.082 38.1182C162.48 38.7342 162.18 39.6289 162.18 40.8022V46.5002H159.43V34.7522H162.048V36.4682Z" fill="white"/>
<path d="M179.497 40.6922C179.497 40.8829 179.482 41.1542 179.453 41.5062H170.235C170.396 42.3715 170.814 43.0609 171.489 43.5742C172.178 44.0729 173.029 44.3222 174.041 44.3222C175.332 44.3222 176.395 43.8969 177.231 43.0462L178.705 44.7402C178.177 45.3709 177.51 45.8475 176.703 46.1702C175.896 46.4929 174.987 46.6542 173.975 46.6542C172.684 46.6542 171.548 46.3975 170.565 45.8842C169.582 45.3709 168.82 44.6595 168.277 43.7502C167.749 42.8262 167.485 41.7849 167.485 40.6262C167.485 39.4822 167.742 38.4555 168.255 37.5462C168.783 36.6222 169.509 35.9035 170.433 35.3902C171.357 34.8769 172.398 34.6202 173.557 34.6202C174.701 34.6202 175.72 34.8769 176.615 35.3902C177.524 35.8889 178.228 36.6002 178.727 37.5242C179.24 38.4335 179.497 39.4895 179.497 40.6922ZM173.557 36.8202C172.677 36.8202 171.929 37.0842 171.313 37.6122C170.712 38.1255 170.345 38.8149 170.213 39.6802H176.879C176.762 38.8295 176.402 38.1402 175.801 37.6122C175.2 37.0842 174.452 36.8202 173.557 36.8202Z" fill="white"/>
<rect x="1.44922" y="1" width="199" height="59" rx="5.5" stroke="white"/>
<path d="M50.1559 36.5914C49.208 35.109 48.7498 33.4963 48.7498 31.7309C48.7498 30.0598 49.0777 28.5459 49.7426 27.3151C50.4389 26.0527 51.526 24.9791 53.0264 24.0807C52.2178 22.8318 51.0992 21.857 49.7111 21.1293C48.2916 20.3746 46.8586 20.0108 45.2953 20.0108C44.7248 20.0108 44.1588 20.0916 43.6063 20.2174C43.0672 20.3477 42.3574 20.5678 41.4275 20.8822C40.4932 21.2461 39.752 21.4977 39.2488 21.6729C38.7727 21.8615 38.4268 21.9424 38.2381 21.9424C37.6855 21.9424 36.7242 21.6414 35.3496 21.044C33.9615 20.46 32.7307 20.159 31.7064 20.159C30.3004 20.159 29.0066 20.46 27.8252 21.044C26.6438 21.6414 25.6016 22.4635 24.7031 23.5506C23.8182 24.6063 23.0904 25.9 22.5873 27.351C22.0797 28.8334 21.8281 30.4416 21.8281 32.1621C21.8281 33.2986 21.9539 34.4352 22.1605 35.6166C22.3357 36.8295 22.6367 37.984 22.9826 39.134C23.333 40.3199 23.8047 41.4565 24.2943 42.5436C24.8334 43.6172 25.3545 44.61 25.9834 45.5264C26.6438 46.5012 27.2457 47.3053 27.8117 47.9701C28.3463 48.617 28.8359 49.1516 29.3256 49.5469C29.8152 49.9422 30.2869 50.2252 30.7451 50.4004C31.1719 50.5576 31.6301 50.6385 32.1332 50.6385C32.4656 50.6385 32.9238 50.5576 33.4449 50.4004C33.9525 50.2252 34.5365 50.0545 35.1654 49.8479C35.7809 49.6457 36.3963 49.4705 37.0252 49.2818C37.6227 49.0932 38.2066 49.0123 38.7277 49.0123C39.2174 49.0123 39.7385 49.0932 40.3539 49.2504C40.9379 49.4391 41.5219 49.6143 42.1193 49.8029C42.7033 49.9916 43.2738 50.1623 43.8398 50.3375C44.3924 50.5082 44.8641 50.5891 45.2594 50.5891C45.8748 50.5891 46.4588 50.4947 47.0113 50.1803C47.5953 49.8973 48.1479 49.4885 48.7004 49.0303C48.9699 48.7293 49.3787 48.3026 49.8998 47.6871C50.3715 47.0717 50.8791 46.3619 51.4137 45.5399C51.9213 44.7492 52.4109 43.8643 52.8826 42.9029C53.3408 41.9551 53.7541 40.9443 54.0686 39.9201C52.3975 39.1789 51.0857 38.0604 50.1559 36.5914ZM38.4986 19.6783C39.415 19.6783 40.3135 19.4402 41.1984 18.9506C42.0969 18.4924 42.883 17.8455 43.5793 17.01C44.2891 16.2059 44.8236 15.2895 45.2504 14.2652C45.6772 13.2545 45.8973 12.1988 45.8973 11.1881V10.7613C45.8973 10.649 45.8838 10.5233 45.8344 10.366C44.7922 10.4289 43.7814 10.7164 42.8201 11.2195C41.8408 11.7406 40.9918 12.419 40.2955 13.1916C39.5363 14.0137 38.9838 14.9436 38.5436 15.9229C38.0988 16.9156 37.8787 17.8949 37.8787 18.8877C37.8787 19.1707 37.8787 19.3594 37.9012 19.4582C37.9326 19.6289 38.1213 19.6783 38.4986 19.6783Z" fill="white"/>
</svg>
