<svg width="207" height="65" viewBox="0 0 207 65" fill="none" xmlns="http://www.w3.org/2000/svg">
<path d="M0.0820312 12.406C0.0820312 5.77859 5.45461 0.406006 12.082 0.406006H194.082C200.709 0.406006 206.082 5.77859 206.082 12.406V52.406C206.082 59.0334 200.709 64.406 194.082 64.406H12.082C5.45462 64.406 0.0820312 59.0334 0.0820312 52.406V12.406Z" fill="#1B1B1B"/>
<path fill-rule="evenodd" clip-rule="evenodd" d="M16.7654 13.33C16.3322 13.7976 16.082 14.512 16.082 15.4472V48.6155C16.082 49.5507 16.3322 50.2652 16.7804 50.714L16.8962 50.815L35.4492 32.2315V31.8163L16.8812 13.229L16.7654 13.33Z" fill="url(#paint0_linear_1761:16343)"/>
<path fill-rule="evenodd" clip-rule="evenodd" d="M41.6217 38.4447L35.4336 32.2464V31.8125L41.6217 25.6143L41.7561 25.6966L49.0757 29.8636C51.1708 31.0457 51.1708 32.9983 49.0757 34.1953L41.7561 38.3624L41.6217 38.4447Z" fill="url(#paint1_linear_1761:16343)"/>
<path fill-rule="evenodd" clip-rule="evenodd" d="M41.7569 38.3625L35.4344 32.0295L16.7656 50.729C17.449 51.4622 18.5955 51.5445 19.8765 50.83L41.7569 38.3625Z" fill="url(#paint2_linear_1761:16343)"/>
<path fill-rule="evenodd" clip-rule="evenodd" d="M41.7569 25.6967L19.8765 13.2478C18.5955 12.5147 17.4453 12.6157 16.7656 13.3488L35.4344 32.0296L41.7569 25.6967Z" fill="url(#paint3_linear_1761:16343)"/>
<path opacity="0.2" fill-rule="evenodd" clip-rule="evenodd" d="M41.6232 38.2278L19.8921 50.5944C18.6784 51.2939 17.5954 51.2453 16.897 50.6094L16.7812 50.7253L16.897 50.8263C17.5954 51.4585 18.6784 51.5109 19.8921 50.8114L41.7725 38.3624L41.6232 38.2278Z" fill="#1B1B1B"/>
<path opacity="0.12" fill-rule="evenodd" clip-rule="evenodd" d="M49.0782 33.9784L41.6055 38.2278L41.7399 38.3625L49.0595 34.1954C50.1089 33.5969 50.6243 32.8113 50.6243 32.0295C50.5608 32.7477 50.0268 33.4285 49.0782 33.9784Z" fill="#1B1B1B"/>
<path opacity="0.25" fill-rule="evenodd" clip-rule="evenodd" d="M19.8763 13.4647L49.0763 30.0807C50.0249 30.6156 50.5589 31.3151 50.6411 32.0296C50.6411 31.2478 50.1257 30.4622 49.0763 29.8637L19.8763 13.2478C17.7812 12.047 16.082 13.0495 16.082 15.4473V15.6642C16.082 13.2627 17.7812 12.2789 19.8763 13.4647Z" fill="white"/>
<path d="M107.81 21.1055C106.454 21.1055 105.311 20.6305 104.408 19.6953C103.511 18.7863 103.011 17.5332 103.033 16.2539C103.033 14.8886 103.496 13.7327 104.408 12.8162C105.308 11.8811 106.45 11.406 107.806 11.406C109.147 11.406 110.289 11.8811 111.208 12.8162C112.119 13.7626 112.582 14.9185 112.582 16.2539C112.568 17.623 112.104 18.7788 111.208 19.6915C110.308 20.6342 109.165 21.1055 107.81 21.1055ZM67.4734 21.1055C66.1477 21.1055 64.9974 20.6379 64.0563 19.714C63.1227 18.7938 62.6484 17.6304 62.6484 16.2576C62.6484 14.8848 63.1227 13.7215 64.0563 12.8013C64.9788 11.8773 66.129 11.4097 67.4734 11.4097C68.1307 11.4097 68.7693 11.5407 69.3817 11.8063C69.983 12.0644 70.4722 12.416 70.8345 12.8462L70.9241 12.9546L69.912 13.9496L69.8075 13.8262C69.2361 13.1454 68.4705 12.8125 67.4585 12.8125C66.5547 12.8125 65.7667 13.1342 65.1169 13.7701C64.4634 14.4097 64.131 15.2477 64.131 16.2614C64.131 17.2751 64.4634 18.113 65.1169 18.7526C65.7667 19.3886 66.5547 19.7103 67.4585 19.7103C68.422 19.7103 69.2324 19.3886 69.8635 18.7526C70.2369 18.3786 70.4685 17.8549 70.5506 17.1928H67.3054V15.7938H71.9436L71.9623 15.921C71.9959 16.1566 72.0295 16.3998 72.0295 16.6242C72.0295 17.9147 71.6411 18.9584 70.8718 19.729C69.9979 20.6417 68.8552 21.1055 67.4734 21.1055ZM121.105 20.9073H119.674L115.294 13.8861L115.331 15.1504V20.9035H113.901V11.608H115.533L115.578 11.6791L119.697 18.2925L119.659 17.0319V11.608H121.105V20.9073ZM97.0619 20.9073H95.6129V13.007H93.0996V11.608H99.5714V13.007H97.0581V20.9073H97.0619ZM91.9195 20.9073H90.4742V11.608H91.9195V20.9073ZM83.7969 20.9073H82.3517V13.007H79.8383V11.608H86.3102V13.007H83.7969V20.9073ZM78.9234 20.8923H73.3814V11.608H78.9234V13.007H74.8304V15.5581H78.5238V16.9422H74.8304V19.4933H78.9234V20.8923ZM105.468 18.7339C106.114 19.3811 106.899 19.7065 107.81 19.7065C108.747 19.7065 109.513 19.3886 110.151 18.7339C110.786 18.098 111.107 17.2639 111.107 16.2576C111.107 15.2514 110.786 14.4135 110.155 13.7813C109.509 13.1342 108.721 12.8087 107.813 12.8087C106.876 12.8087 106.111 13.1267 105.476 13.7813C104.841 14.4172 104.52 15.2514 104.52 16.2576C104.52 17.2639 104.837 18.1018 105.468 18.7339Z" fill="white"/>
<path fill-rule="evenodd" clip-rule="evenodd" d="M103.183 34.1903C99.6536 34.1903 96.793 36.8723 96.793 40.5718C96.793 44.2376 99.6723 46.9533 103.183 46.9533C106.712 46.9533 109.572 44.2526 109.572 40.5718C109.572 36.8723 106.712 34.1903 103.183 34.1903ZM103.183 44.4247C101.252 44.4247 99.5901 42.8237 99.5901 40.5568C99.5901 38.2563 101.256 36.689 103.183 36.689C105.113 36.689 106.775 38.2563 106.775 40.5568C106.779 42.8386 105.113 44.4247 103.183 44.4247ZM89.2418 34.1903C85.7127 34.1903 82.8521 36.8723 82.8521 40.5718C82.8521 44.2376 85.7314 46.9533 89.2418 46.9533C92.7709 46.9533 95.6316 44.2526 95.6316 40.5718C95.6316 36.8723 92.7672 34.1903 89.2418 34.1903ZM89.2418 44.4247C87.3111 44.4247 85.6492 42.8237 85.6492 40.5568C85.6492 38.2563 87.3148 36.689 89.2418 36.689C91.1726 36.689 92.8344 38.2563 92.8344 40.5568C92.8344 42.8386 91.1726 44.4247 89.2418 44.4247ZM72.6532 36.1391V38.8399H79.1251C78.9271 40.3548 78.4267 41.4733 77.6611 42.2401C76.7126 43.1903 75.2486 44.2227 72.6681 44.2227C68.6909 44.2227 65.58 41.0057 65.58 37.0219C65.58 33.0381 68.6909 29.8212 72.6681 29.8212C74.8154 29.8212 76.3802 30.6703 77.5416 31.7551L79.4537 29.8399C77.8404 28.2913 75.6931 27.1055 72.683 27.1055C67.2269 27.1055 62.6484 31.5568 62.6484 37.007C62.6484 42.4721 67.2232 46.9085 72.683 46.9085C75.6296 46.9085 77.8404 45.9434 79.5881 44.1254C81.3695 42.3411 81.9334 39.8237 81.9334 37.7925C81.9334 37.1603 81.8849 36.5918 81.784 36.1092H72.6494C72.6532 36.1055 72.6532 36.1391 72.6532 36.1391ZM140.505 38.2414C139.971 36.8087 138.358 34.1753 135.049 34.1753C131.77 34.1753 129.044 36.7601 129.044 40.5568C129.044 44.1404 131.74 46.9384 135.367 46.9384C138.28 46.9384 139.975 45.1541 140.673 44.1067L138.511 42.6553C137.794 43.7214 136.797 44.4209 135.382 44.4209C133.951 44.4209 132.95 43.7701 132.286 42.487L140.804 38.9521C140.804 38.9558 140.505 38.2414 140.505 38.2414ZM131.819 40.3735C131.752 37.9085 133.731 36.6553 135.146 36.6553C136.263 36.6553 137.193 37.2052 137.51 38.0057L131.819 40.3735ZM124.899 46.5568H127.696V27.8087H124.899V46.5568ZM120.305 35.608H120.205C119.573 34.8561 118.375 34.1753 116.844 34.1753C113.665 34.1753 110.738 36.977 110.738 40.5755C110.738 44.1591 113.651 46.9272 116.844 46.9272C118.356 46.9272 119.573 46.2426 120.205 45.4758H120.305V46.3923C120.305 48.8274 119.006 50.1404 116.911 50.1404C115.197 50.1404 114.132 48.906 113.699 47.8735L111.268 48.891C111.966 50.5743 113.83 52.6578 116.907 52.6578C120.186 52.6578 122.964 50.7239 122.964 46.007V34.5568H120.32V35.608C120.324 35.608 120.305 35.608 120.305 35.608ZM117.094 44.4247C115.163 44.4247 113.55 42.8087 113.55 40.5755C113.55 38.3237 115.163 36.6928 117.094 36.6928C119.006 36.6928 120.488 38.3424 120.488 40.5755C120.507 42.8087 119.01 44.4247 117.094 44.4247ZM153.602 27.8087H146.914V46.5568H149.711V39.4571H153.606C156.702 39.4571 159.746 37.209 159.746 33.6404C159.746 30.0718 156.713 27.8087 153.602 27.8087ZM153.684 36.8386H149.707V30.4047H153.684C155.779 30.4047 156.963 32.1366 156.963 33.6217C156.963 35.0918 155.765 36.8386 153.684 36.8386ZM170.956 34.1566C168.925 34.1566 166.83 35.0581 165.963 37.0219L168.443 38.0543C168.977 37.0219 169.956 36.6703 170.99 36.6703C172.439 36.6703 173.903 37.5381 173.937 39.0868V39.285C173.436 39.0007 172.338 38.5668 171.024 38.5668C168.346 38.5668 165.631 40.0331 165.631 42.7825C165.631 45.3 167.827 46.9159 170.273 46.9159C172.152 46.9159 173.186 46.0668 173.832 45.083H173.933V46.5344H176.629V39.3524C176.629 36.0082 174.149 34.1566 170.956 34.1566ZM170.605 44.4247C169.69 44.4247 168.41 43.9758 168.41 42.8237C168.41 41.3723 170.008 40.8224 171.371 40.8224C172.603 40.8224 173.186 41.088 173.918 41.4546C173.716 43.1379 172.297 44.4097 170.605 44.4247ZM186.466 34.5568L183.254 42.689H183.153L179.826 34.5568H176.816L181.809 45.9247L178.963 52.2426H181.876L189.558 34.5568H186.466ZM161.288 46.5568H164.085V27.8087H161.288V46.5568Z" fill="white"/>
<path d="M12.082 2.40601H194.082V-1.59399H12.082V2.40601ZM204.082 12.406V52.406H208.082V12.406H204.082ZM194.082 62.406H12.082V66.406H194.082V62.406ZM2.08203 52.406V12.406H-1.91797V52.406H2.08203ZM12.082 62.406C6.55919 62.406 2.08203 57.9289 2.08203 52.406H-1.91797C-1.91797 60.138 4.35005 66.406 12.082 66.406V62.406ZM204.082 52.406C204.082 57.9289 199.605 62.406 194.082 62.406V66.406C201.814 66.406 208.082 60.138 208.082 52.406H204.082ZM194.082 2.40601C199.605 2.40601 204.082 6.88316 204.082 12.406H208.082C208.082 4.67402 201.814 -1.59399 194.082 -1.59399V2.40601ZM12.082 -1.59399C4.35005 -1.59399 -1.91797 4.67402 -1.91797 12.406H2.08203C2.08203 6.88316 6.55918 2.40601 12.082 2.40601V-1.59399Z" fill="white"/>
<defs>
<linearGradient id="paint0_linear_1761:16343" x1="33.785" y1="15.0894" x2="4.0598" y2="22.9967" gradientUnits="userSpaceOnUse">
<stop stop-color="#00A0FF"/>
<stop offset="0.00657" stop-color="#00A1FF"/>
<stop offset="0.2601" stop-color="#00BEFF"/>
<stop offset="0.5122" stop-color="#00D2FF"/>
<stop offset="0.7604" stop-color="#00DFFF"/>
<stop offset="1" stop-color="#00E3FF"/>
</linearGradient>
<linearGradient id="paint1_linear_1761:16343" x1="51.8079" y1="32.0295" x2="15.5722" y2="32.0295" gradientUnits="userSpaceOnUse">
<stop stop-color="#FFE000"/>
<stop offset="0.4087" stop-color="#FFBD00"/>
<stop offset="0.7754" stop-color="#FFA500"/>
<stop offset="1" stop-color="#FF9C00"/>
</linearGradient>
<linearGradient id="paint2_linear_1761:16343" x1="38.319" y1="35.4756" x2="14.4029" y2="75.6622" gradientUnits="userSpaceOnUse">
<stop stop-color="#FF3A44"/>
<stop offset="1" stop-color="#C31162"/>
</linearGradient>
<linearGradient id="paint3_linear_1761:16343" x1="12.0646" y1="2.29781" x2="22.7346" y2="20.2458" gradientUnits="userSpaceOnUse">
<stop stop-color="#32A071"/>
<stop offset="0.0685" stop-color="#2DA771"/>
<stop offset="0.4762" stop-color="#15CF74"/>
<stop offset="0.8009" stop-color="#06E775"/>
<stop offset="1" stop-color="#00F076"/>
</linearGradient>
</defs>
</svg>
